<svg width="126" height="120" viewBox="0 0 126 120" fill="none" xmlns="http://www.w3.org/2000/svg">
<g clip-path="url(#clip0_16243_46768)">
<path d="M118.664 54.7776C112.385 72.7312 124.552 96.5767 95.0707 102.556C84.3676 104.727 76.6207 99.5309 66.2659 105.657C47.9417 116.498 36.9786 115.576 29.0758 107.237C23.1553 100.991 23.2271 92.6047 17.2437 89.1698C4.28308 81.7299 0.855233 70.5951 3.73317 57.2289C5.24621 50.2016 11.3918 45.4514 15.175 40.7C19.606 35.1355 21.1152 28.4623 23.2437 22.8005C32.7236 -2.41442 58.6149 13.9181 73.9887 8.82271C87.5228 4.33702 94.559 9.41267 98.695 17.1094C107.13 32.8055 128.37 27.0236 118.664 54.7776ZM125.838 64.7083C125.818 62.7229 124.192 61.1298 122.207 61.1501C120.221 61.1705 118.628 62.796 118.649 64.7814C118.669 66.7668 120.295 68.3599 122.28 68.3396C124.265 68.3192 125.858 66.693 125.838 64.7083ZM80.587 108.971C78.0491 106.485 73.976 106.526 71.4897 109.065C69.0034 111.603 69.0447 115.676 71.5831 118.162C74.121 120.649 78.1941 120.607 80.6804 118.069C83.1667 115.531 83.1254 111.458 80.587 108.971ZM0.920077 32.1152C1.93851 33.1336 3.5895 33.1336 4.60793 32.1152C5.62637 31.0967 5.62637 29.4457 4.60793 28.4273C3.5895 27.4089 1.93851 27.4089 0.920077 28.4273C-0.098359 29.4457 -0.098359 31.0967 0.920077 32.1152ZM101.973 15.3249C101.643 17.5869 103.209 19.6892 105.471 20.0198C107.734 20.3504 109.836 18.7846 110.166 16.522C110.497 14.2601 108.931 12.1577 106.668 11.8272C104.406 11.4966 102.304 13.0624 101.973 15.3249ZM63.2259 2.96702C62.9487 4.86213 64.2608 6.62309 66.1559 6.90027C68.051 7.17745 69.812 5.8653 70.0892 3.9702C70.3664 2.0751 69.0542 0.314129 67.1591 0.0369513C65.264 -0.240226 63.503 1.07192 63.2259 2.96702ZM8.22586 31.0503C8.62446 33.782 11.1623 35.6733 13.894 35.2747C16.6257 34.8761 18.517 32.3383 18.1184 29.6066C17.7198 26.8748 15.182 24.9836 12.4503 25.3822C9.71855 25.7808 7.82726 28.3186 8.22586 31.0503ZM110.577 11.564C110.456 12.3923 111.029 13.1616 111.857 13.2823C112.686 13.4031 113.455 12.8303 113.576 12.002C113.696 11.1736 113.124 10.4044 112.295 10.2836C111.467 10.1628 110.698 10.7356 110.577 11.564ZM19.812 108.938C19.9627 109.971 20.922 110.686 21.955 110.535C22.9881 110.385 23.7033 109.425 23.5526 108.392C23.402 107.359 22.4426 106.644 21.4096 106.795C20.3765 106.945 19.6613 107.905 19.812 108.938ZM21.6817 100.197C21.6543 97.5519 19.4884 95.4298 16.8432 95.4565C14.1979 95.4839 12.0758 97.6498 12.1025 100.295C12.1299 102.94 14.2958 105.062 16.9411 105.036C19.5863 105.008 21.7084 102.842 21.6817 100.197Z" fill="#CCEDDF"/>
<g clip-path="url(#clip1_16243_46768)">
<path d="M67.3143 53H41.1286L35 79H74L67.3143 53Z" fill="white"/>
<path d="M47.5 84.2188V87.125C47.5 88.7302 46.199 90.0312 44.5938 90.0312H38.7812C37.176 90.0312 35.875 88.7302 35.875 87.125V84.2188H47.5Z" fill="#32B768"/>
<path d="M63 84.2188H74.625V87.125C74.625 88.7302 73.324 90.0312 71.7188 90.0312H65.9062C64.301 90.0312 63 88.7302 63 87.125V84.2188Z" fill="#32B768"/>
<path d="M82.839 36.75H68.8125V35.7812C68.8125 32.5747 66.2066 29.9688 63 29.9688H53.3125C52.2469 29.9688 51.375 30.8406 51.375 31.9062V32.875H47.5C46.4305 32.875 45.5625 33.743 45.5625 34.8125C45.5625 35.882 46.4305 36.75 47.5 36.75H51.375V40.625H47.5C46.4305 40.625 45.5625 41.493 45.5625 42.5625C45.5625 43.632 46.4305 44.5 47.5 44.5H51.375V45.4688C51.375 46.5344 52.2469 47.4062 53.3125 47.4062H63C63.5231 47.4062 64.0366 47.3384 64.5209 47.2028C66.9912 46.5344 68.8125 44.2772 68.8125 41.5938V40.625H82.839C86.3227 40.625 89.1562 43.4596 89.1562 46.9422V66.2756C89.1562 69.7592 86.3227 72.5938 82.839 72.5938H77.5312V70.9759C77.5312 69.2293 76.5441 67.7335 75.1404 67.1029L70.3557 53.5452C69.6737 51.6116 67.8379 50.3125 65.7871 50.3125H44.7129C42.663 50.3125 40.8273 51.6116 40.1452 53.5443L35.3596 67.1029C33.9559 67.7335 32.9688 69.2293 32.9688 70.9759V78.0866C32.9688 80.4019 34.7028 82.2812 36.8438 82.2812H73.6562C75.7972 82.2812 77.5312 80.4019 77.5312 78.0866V76.4688H82.839C88.4588 76.4688 93.0312 71.8963 93.0312 66.2765V46.9422C93.0312 41.3225 88.4588 36.75 82.839 36.75ZM64.9375 39.6562C64.9375 37.5153 63.2034 35.7812 61.0625 35.7812H55.25V33.8438H63C64.0656 33.8438 64.9375 34.7156 64.9375 35.7812V39.6562ZM43.7994 54.8337C43.935 54.4481 44.3022 54.1875 44.7129 54.1875H65.7881C66.1978 54.1875 66.565 54.4481 66.7016 54.8346L70.9176 66.7812H39.5824L43.7994 54.8337ZM43.625 76.4688H40.7188C39.6493 76.4688 38.7812 75.6007 38.7812 74.5312C38.7812 73.4618 39.6493 72.5938 40.7188 72.5938H43.625C44.6945 72.5938 45.5625 73.4618 45.5625 74.5312C45.5625 75.6007 44.6945 76.4688 43.625 76.4688ZM68.8125 76.4688H65.9062C64.8368 76.4688 63.9688 75.6007 63.9688 74.5312C63.9688 73.4618 64.8368 72.5938 65.9062 72.5938H68.8125C69.882 72.5938 70.75 73.4618 70.75 74.5312C70.75 75.6007 69.882 76.4688 68.8125 76.4688Z" fill="#32B768"/>
<path d="M85.0681 57.3069L87.2188 59.1475V49.8378C85.3684 48.3169 83.0144 47.4062 80.4375 47.4062H75.5938C74.5281 47.4062 73.6562 48.2781 73.6562 49.3438V54.1875C73.6562 60.0678 78.4322 64.8438 84.3125 64.8438H87.2188V63.1097L83.5569 58.8181C82.7141 57.8397 84.0897 56.4641 85.0681 57.3069Z" fill="#32B768"/>
</g>
</g>
<defs>
<clipPath id="clip0_16243_46768">
<rect width="125.682" height="120" fill="white" transform="translate(0.15625)"/>
</clipPath>
<clipPath id="clip1_16243_46768">
<rect width="62" height="62" fill="white" transform="translate(32 29)"/>
</clipPath>
</defs>
</svg>
