<svg width="16" height="16" viewBox="0 0 16 16" fill="none" xmlns="http://www.w3.org/2000/svg">
<g clip-path="url(#clip0_16239_29013)">
<path d="M15.5 3H14.75V5.5H15.5C15.5663 5.5 15.6299 5.47366 15.6768 5.42678C15.7237 5.37989 15.75 5.3163 15.75 5.25V3.25C15.75 3.1837 15.7237 3.12011 15.6768 3.07322C15.6299 3.02634 15.5663 3 15.5 3Z" fill="white"/>
<path d="M13.5 11.2512H4.1605C3.98532 11.2512 3.81732 11.1817 3.69346 11.0578C3.56959 10.9339 3.5 10.7659 3.5 10.5908C3.49996 10.504 3.51703 10.4181 3.55023 10.338C3.58343 10.2578 3.63212 10.185 3.6935 10.1238L4.87 8.947L4.153 8.25L2.98625 9.41675C2.67497 9.72816 2.50007 10.1504 2.5 10.5908C2.5 11.0311 2.67494 11.4535 2.98635 11.7649C3.29775 12.0763 3.72011 12.2512 4.1605 12.2512H13.5C13.8315 12.2512 14.1495 12.3829 14.3839 12.6174C14.6183 12.8518 14.75 13.1697 14.75 13.5012C14.75 13.8328 14.6183 14.1507 14.3839 14.3851C14.1495 14.6196 13.8315 14.7512 13.5 14.7512H0.5C0.433696 14.7512 0.370107 14.7776 0.323223 14.8245C0.276339 14.8714 0.25 14.9349 0.25 15.0012V15.5012C0.25 15.5676 0.276339 15.6311 0.323223 15.678C0.370107 15.7249 0.433696 15.7512 0.5 15.7512H13.5C14.0967 15.7512 14.669 15.5142 15.091 15.0922C15.5129 14.6703 15.75 14.098 15.75 13.5012C15.75 12.9045 15.5129 12.3322 15.091 11.9103C14.669 11.4883 14.0967 11.2512 13.5 11.2512Z" fill="white"/>
<path d="M3.89844 7.22775C3.90427 7.28307 3.92878 7.33474 3.96794 7.37425L5.76144 9.11775C5.8085 9.16323 5.87151 9.18844 5.93695 9.18797C6.00239 9.1875 6.06503 9.16139 6.11144 9.11525L9.97719 5.25H10.5927L11.0234 6.11175C11.0442 6.15331 11.0761 6.18826 11.1157 6.21268C11.1552 6.2371 11.2007 6.25002 11.2472 6.25H11.7472V5.25C11.7472 5.1837 11.7735 5.12011 11.8204 5.07322C11.8673 5.02634 11.9309 5 11.9972 5C12.0635 5 12.1271 5.02634 12.174 5.07322C12.2208 5.12011 12.2472 5.1837 12.2472 5.25V6.25H12.7472V5.25C12.7472 5.1837 12.7735 5.12011 12.8204 5.07322C12.8673 5.02634 12.9309 5 12.9972 5C13.0635 5 13.1271 5.02634 13.174 5.07322C13.2208 5.12011 13.2472 5.1837 13.2472 5.25V6.25H13.9972C14.0635 6.25 14.1271 6.22366 14.174 6.17678C14.2208 6.12989 14.2472 6.0663 14.2472 6V2.5C14.2472 2.4337 14.2208 2.37011 14.174 2.32322C14.1271 2.27634 14.0635 2.25 13.9972 2.25H9.87369C9.14439 2.24996 8.44494 2.53961 7.92919 3.05525L7.23444 3.75C7.17515 4.6291 6.80841 5.4593 6.19848 6.09515C5.58854 6.731 4.77431 7.13195 3.89844 7.22775Z" fill="white"/>
<path d="M3.49462 3.908L3.38087 4.76L4.51813 3.125H3.65737C3.61866 3.12502 3.58047 3.11605 3.54582 3.0988C3.51116 3.08154 3.48099 3.05648 3.45767 3.02558C3.43435 2.99467 3.41853 2.95878 3.41145 2.92072C3.40437 2.88265 3.40623 2.84347 3.41687 2.80625L3.79012 1.5H2.93512L2.32812 3.625H3.24662C3.28226 3.62497 3.31749 3.63256 3.34995 3.64726C3.38241 3.66196 3.41135 3.68343 3.43483 3.71023C3.45832 3.73703 3.4758 3.76854 3.48611 3.80265C3.49643 3.83676 3.49933 3.87268 3.49462 3.908Z" fill="white"/>
<path d="M3.5 6.75C4.14279 6.75 4.77114 6.55939 5.3056 6.20228C5.84006 5.84516 6.25662 5.33758 6.50261 4.74372C6.74859 4.14986 6.81295 3.4964 6.68755 2.86596C6.56215 2.23552 6.25262 1.65643 5.7981 1.2019C5.34358 0.747384 4.76448 0.437851 4.13404 0.312449C3.50361 0.187047 2.85014 0.251408 2.25628 0.497393C1.66242 0.743378 1.15484 1.15994 0.797724 1.6944C0.440609 2.22886 0.25 2.85721 0.25 3.5C0.25 4.36196 0.59241 5.18861 1.2019 5.7981C1.50369 6.09989 1.86197 6.33928 2.25628 6.50261C2.65059 6.66594 3.0732 6.75 3.5 6.75ZM1.75975 3.80625L2.50975 1.18125C2.52468 1.12905 2.5562 1.08313 2.59955 1.05043C2.64289 1.01773 2.6957 1.00003 2.75 1H4.125C4.16371 0.99998 4.2019 1.00895 4.23656 1.0262C4.27121 1.04346 4.30139 1.06852 4.32471 1.09943C4.34802 1.13033 4.36384 1.16623 4.37092 1.20429C4.378 1.24235 4.37615 1.28153 4.3655 1.31875L3.99225 2.625H5C5.04567 2.625 5.09047 2.63751 5.12953 2.66117C5.16859 2.68483 5.20043 2.71873 5.22158 2.75921C5.24273 2.79969 5.25239 2.84518 5.24952 2.89076C5.24664 2.93634 5.23133 2.98026 5.20525 3.01775L3.20525 5.89275C3.17324 5.93864 3.12677 5.97247 3.07326 5.98883C3.01975 6.00518 2.9623 6.00311 2.91011 5.98294C2.85791 5.96278 2.81399 5.92569 2.78537 5.87761C2.75675 5.82953 2.74509 5.77324 2.75225 5.71775L2.9645 4.12575H2C1.96122 4.12577 1.92298 4.11676 1.88828 4.09945C1.85358 4.08214 1.82339 4.05699 1.80008 4.026C1.77678 3.99501 1.761 3.95902 1.754 3.92088C1.747 3.88274 1.74897 3.8435 1.75975 3.80625Z" fill="white"/>
</g>
<defs>
<clipPath id="clip0_16239_29013">
<rect width="16" height="16" fill="white"/>
</clipPath>
</defs>
</svg>
